<svg xmlns="http://www.w3.org/2000/svg" viewBox="0 0 218 53"><style>.st0{fill:#6d6e70}.st1{fill:#2377b8}.st2{fill:#3b79b9}</style><path class="st0" d="M20.8 25.9L5.1 17.7 21 9.4l15.5 8-15.7 8.5zM21 4L5.1 12.4 0 15v23.2l5.1 2.7 10 5.2 3.7 1.9 2 1.1V35.2l-10.7-5.6V35l5 2.5v3.4l-10-5.1V23l15.7 8.2 5.7-3 1.9-1v18l3.8-2 1.9-1v-18l7.5-3.9v-5.8L21 4z"/><path id="XMLID_47_" class="st1" d="M21 4L5.1 12.4 0 15v23.2l5.1 2.7 10 5.2 3.7 1.9 2 1.1V35.2l-10.7-5.6V35l5 2.5v3.4l-10-5.1V23.1l15.7 8.2v-5.4L5.1 17.7 21 9.4z"/><path class="st2" d="M64.3 33.3c-7.1 0-12-5-12-11.8v-.1c0-6.5 5.1-11.8 12-11.8 4.1 0 6.6 1.1 9 3.1l-3.2 3.8c-1.8-1.5-3.3-2.3-6-2.3-3.7 0-6.6 3.2-6.6 7.1v.1c0 4.2 2.9 7.3 6.9 7.3 1.8 0 3.5-.5 4.7-1.4V24H63v-4.3h11.1v9.9c-2.4 2.1-5.6 3.7-9.8 3.7zm13.1-.4V10.2h5v22.7h-5zm16.8.4c-5.4 0-9.4-4-9.4-9v-.1c0-5 4.1-9.1 9.5-9.1s9.4 4 9.4 9v.1c0 5-4 9.1-9.5 9.1zm4.6-9.1c0-2.6-1.9-4.8-4.6-4.8-2.8 0-4.5 2.2-4.5 4.8v.1c0 2.6 1.9 4.8 4.6 4.8 2.8-.1 4.5-2.3 4.5-4.9zm17.7 9c-2.6 0-4.3-1.2-5.5-2.6v2.3h-5V10.2h5v7.7c1.2-1.6 2.9-2.8 5.5-2.8 4.1 0 8 3.2 8 9v.1c0 5.8-3.8 9-8 9zm3-9.1c0-2.9-2-4.8-4.3-4.8s-4.2 1.9-4.2 4.8v.1c0 2.9 1.9 4.8 4.2 4.8 2.4 0 4.3-1.9 4.3-4.9zm16.6 9.2c-5.4 0-9.4-4-9.4-9v-.1c0-5 4.1-9.1 9.5-9.1s9.4 4 9.4 9v.1c0 5-4 9.1-9.5 9.1zm4.6-9.1c0-2.6-1.9-4.8-4.6-4.8-2.8 0-4.5 2.2-4.5 4.8v.1c0 2.6 1.9 4.8 4.6 4.8 2.8-.1 4.5-2.3 4.5-4.9z"/><path class="st0" d="M159.8 14.7v18.2h-5V14.7h-7V10h18.9v4.6h-6.9zm21.5 11.2h-12.2c.5 2.3 2.1 3.4 4.3 3.4 1.7 0 2.9-.5 4.2-1.8l2.8 2.5c-1.6 2-4 3.3-7.2 3.3-5.3 0-9.1-3.7-9.1-9v-.1c0-5 3.6-9.1 8.7-9.1 5.8 0 8.5 4.5 8.5 9.5v.1c.1.4.1.7 0 1.2zm-8.4-6.9c-2.1 0-3.4 1.5-3.8 3.7h7.5c-.3-2.1-1.6-3.7-3.7-3.7zm19.5 14.6c-5.3 0-9.1-4.1-9.1-9v-.1c0-5 3.8-9.1 9.2-9.1 3.3 0 5.4 1.1 7 2.9l-3 3.3c-1.1-1.2-2.2-1.9-4-1.9-2.5 0-4.2 2.2-4.2 4.8v.1c0 2.7 1.7 4.8 4.4 4.8 1.7 0 2.8-.7 4-1.9l2.9 2.9c-1.7 1.8-3.7 3.2-7.2 3.2zm20.6-.4v-9.8c0-2.4-1.1-3.6-3-3.6s-3.1 1.2-3.1 3.6v9.8h-5V9.3h5v8.8c1.1-1.5 2.6-2.8 5.1-2.8 3.8 0 5.9 2.5 5.9 6.5v11.3H213zM61.9 45.8c-.4.4-.8.7-1.2.9-.4.2-1 .3-1.6.3-1 0-1.8-.3-2.5-1s-1-1.5-1-2.5.3-1.9 1-2.6c.7-.7 1.5-1 2.6-1 .6 0 1.1.1 1.5.3.4.2.8.5 1.2.8l-.9.9c-.6-.6-1.3-.9-1.9-.9-.7 0-1.2.2-1.6.7-.4.5-.6 1.1-.6 1.7 0 .7.2 1.3.7 1.8.4.5 1 .7 1.6.7.4 0 .7-.1 1-.2.3-.1.6-.4.9-.7l.8.8zm7.6-4.9c.7.7 1 1.5 1 2.5s-.3 1.8-1 2.5-1.6 1-2.6 1-1.9-.3-2.6-1c-.7-.7-1-1.5-1-2.5s.3-1.8 1-2.5 1.6-1.1 2.6-1.1c1 .1 1.9.5 2.6 1.1zm-1 4.3c.4-.5.7-1.1.7-1.7 0-.7-.2-1.3-.7-1.8-.4-.5-1-.7-1.7-.7s-1.2.2-1.7.7c-.4.5-.7 1.1-.7 1.7 0 .7.2 1.3.7 1.8.4.5 1 .7 1.7.7.7.1 1.3-.2 1.7-.7zm9.6-3.2l-2.2 3.3-2.2-3.3v5h-1.2v-7h1.3l2.1 3.3L78 40h1.3v7h-1.2v-5zm9.2 0l-2.2 3.3-2.2-3.3v5h-1.2v-7H83l2.1 3.3 2.1-3.3h1.3v7h-1.2v-5zm9.4-2v4c0 1-.3 1.8-.8 2.3-.5.5-1.3.8-2.2.8-.9 0-1.6-.3-2.2-.8-.5-.5-.8-1.3-.8-2.3v-4H92v4c0 .6.2 1.1.5 1.5.3.3.7.5 1.3.5.5 0 1-.2 1.3-.5.3-.3.5-.8.5-1.4v-4h1.1zm7.2 4.8V40h1.2v7h-1l-3.8-4.9V47H99v-7h1.1l3.8 4.8zm3.6-4.8h1.2v7h-1.2v-7zm9.7 5.8c-.4.4-.8.7-1.2.9-.4.2-1 .3-1.6.3-1 0-1.8-.3-2.5-1s-1-1.5-1-2.5.3-1.9 1-2.6c.7-.7 1.5-1 2.6-1 .6 0 1.1.1 1.5.3.4.2.8.5 1.2.8l-.8.9c-.6-.6-1.3-.9-1.9-.9-.7 0-1.2.2-1.6.7-.4.5-.6 1.1-.6 1.7 0 .7.2 1.3.7 1.8.4.5 1 .7 1.6.7.4 0 .7-.1 1-.2.3-.1.6-.4.9-.7l.7.8zm5.5-5.8l3.1 7h-1.3l-.7-1.7h-3.3l-.7 1.7h-1.2l3.1-7h1zm.6 4.2l-1.2-2.8-1.2 2.8h2.4zm6.3-3V47h-1.2v-5.8h-2.2V40h5.6v1.1h-2.2zm4.2-1.2h1.2v7h-1.2v-7zm9.6.9c.7.7 1 1.5 1 2.5s-.3 1.8-1 2.5-1.6 1-2.6 1-1.9-.3-2.6-1c-.7-.7-1-1.5-1-2.5s.3-1.8 1-2.5 1.6-1.1 2.6-1.1c1 .1 1.9.5 2.6 1.1zm-.9 4.3c.4-.5.7-1.1.7-1.7 0-.7-.2-1.3-.7-1.8-.4-.5-1-.7-1.7-.7s-1.2.2-1.7.7c-.4.5-.7 1.1-.7 1.7 0 .7.2 1.3.7 1.8.4.5 1 .7 1.7.7.7.1 1.2-.2 1.7-.7zm8.8-.4V40h1.2v7h-1l-3.8-4.9V47h-1.2v-7h1.1l3.7 4.8zm4.6-3c0 .3.1.5.3.6.2.1.7.3 1.3.5.8.2 1.3.4 1.7.7.4.3.5.7.5 1.3 0 .6-.2 1.1-.7 1.5-.5.4-1.1.6-1.8.6-1.1 0-2.1-.4-2.9-1.1l.7-.9c.7.6 1.4.9 2.2.9.4 0 .7-.1.9-.2.2-.2.3-.4.3-.6 0-.3-.1-.5-.3-.6-.2-.2-.6-.3-1.2-.4-.8-.2-1.4-.4-1.8-.7s-.5-.7-.5-1.3c0-.6.2-1.1.7-1.5.4-.4 1-.6 1.7-.6 1 0 1.8.3 2.5.9l-.7.9c-.6-.5-1.3-.7-1.9-.7-.3 0-.6.1-.8.2-.1.1-.2.3-.2.5zM151.7 32.2c0 .4-.3.7-.7.7h-2.9c-.4 0-.7-.3-.7-.7v-2.9c0-.4.3-.7.7-.7h2.9c.4 0 .7.3.7.7v2.9z"/></svg>