<?xml version="1.0" encoding="utf-8"?>
<!-- Generator: Adobe Illustrator 22.0.1, SVG Export Plug-In . SVG Version: 6.00 Build 0)  -->
<svg version="1.1" id="Layer_2" xmlns="http://www.w3.org/2000/svg" xmlns:xlink="http://www.w3.org/1999/xlink" x="0px" y="0px"
	 viewBox="0 0 360 360" style="enable-background:new 0 0 360 360;" xml:space="preserve">
<style type="text/css">
	.st0{fill:#262626;}
	.st1{fill:none;stroke:#51AA57;stroke-width:8;stroke-linecap:round;stroke-linejoin:round;stroke-miterlimit:10;}
	.st2{fill:none;stroke:#51AA57;stroke-width:6;stroke-linecap:round;stroke-linejoin:round;stroke-miterlimit:10;}
	.st3{fill:#232323;}
	.st4{fill:none;stroke:#FFFFFF;stroke-width:6;stroke-linecap:round;stroke-linejoin:round;stroke-miterlimit:10;}
</style>
<g>
	<path class="st0" d="M270.4,174.6h24v-68.1H179.7v68.1h7.6c0,0,6.5-34.1,41.4-34.1S270.4,174.6,270.4,174.6z"/>
	<polyline class="st1" points="185.6,175.2 65,175.2 65,107.1 294.4,107.1 294.4,175.2 271.9,175.2 	"/>
	<polyline class="st2" points="86.2,127.4 98.3,154.8 114.3,127.4 128,154.8 142.4,127.4 156.1,154.8 	"/>
	<g>
		
			<rect x="271.3" y="231.1" transform="matrix(0.8834 -0.4686 0.4686 0.8834 -90.7269 159.9572)" class="st3" width="9.6" height="62.5"/>
	</g>
	<g>
		
			<ellipse transform="matrix(0.8834 -0.4686 0.4686 0.8834 -58.1973 127.8155)" class="st1" cx="227.8" cy="180.9" rx="40.3" ry="40"/>
		
			<rect x="262.1" y="233.7" transform="matrix(0.8834 -0.4686 0.4686 0.8834 -91.8443 157.8258)" class="st1" width="18.4" height="59.5"/>
		<line class="st1" x1="246.4" y1="217.2" x2="256.3" y2="235.8"/>
	</g>
	<polyline class="st4" points="205.7,183.9 219.2,201.5 249,170 	"/>
</g>
</svg>
