<?xml version="1.0" encoding="utf-8"?>
<!-- Generator: Adobe Illustrator 22.0.1, SVG Export Plug-In . SVG Version: 6.00 Build 0)  -->
<svg version="1.1" id="Layer_2" xmlns="http://www.w3.org/2000/svg" xmlns:xlink="http://www.w3.org/1999/xlink" x="0px" y="0px"
	 viewBox="0 0 360 360" style="enable-background:new 0 0 360 360;" xml:space="preserve">
<style type="text/css">
	.st0{fill:#232323;}
	.st1{fill:none;stroke:#11AF4B;stroke-width:8;stroke-linecap:round;stroke-linejoin:round;stroke-miterlimit:10;}
	.st2{stroke:#FFFFFF;stroke-width:6;stroke-linecap:round;stroke-linejoin:round;stroke-miterlimit:10;}
</style>
<g>
	<g>
		<path class="st0" d="M180,76.2c57.2-0.3,103.8,45.9,104,103c0.3,57.2-45.9,103.8-103,104L180,76.2z"/>
	</g>
	<g>
		<path class="st1" d="M130.8,88.9c25.4-13.6,56.4-16.5,85.5-5.4c53.5,20.3,80.4,80.1,60.1,133.5s-80.1,80.4-133.5,60.1
			S62.4,197,82.7,143.5c6-15.7,15.3-29.1,27-39.8"/>
		<polyline class="st1" points="110.2,118.1 111.9,101.7 95.7,100.1 		"/>
	</g>
	<polygon class="st2" points="138.2,193.4 189.3,101 175.6,168 214.1,168.3 169.6,254.4 176.5,193.6 	"/>
</g>
</svg>
