<?xml version="1.0" encoding="utf-8"?>
<!-- Generator: Adobe Illustrator 22.0.1, SVG Export Plug-In . SVG Version: 6.00 Build 0)  -->
<svg version="1.1" id="Layer_2" xmlns="http://www.w3.org/2000/svg" xmlns:xlink="http://www.w3.org/1999/xlink" x="0px" y="0px"
	 viewBox="0 0 360 360" style="enable-background:new 0 0 360 360;" xml:space="preserve">
<style type="text/css">
	.st0{fill:#232323;}
	.st1{fill:none;stroke:#FFFFFF;stroke-width:6;stroke-linecap:round;stroke-linejoin:round;stroke-miterlimit:10;}
	.st2{fill:none;stroke:#11AF4B;stroke-width:8;stroke-linecap:round;stroke-linejoin:round;stroke-miterlimit:10;}
	.st3{fill:none;stroke:#11AF4B;stroke-width:6;stroke-linecap:round;stroke-linejoin:round;stroke-miterlimit:10;}
</style>
<g>
	<g>
		<path class="st0" d="M179.3,288.3h50.3V163.9c0,0.7-49.6-55.6-50-56.5L179.3,288.3z"/>
		<circle cx="179.7" cy="162.6" r="14.7"/>
	</g>
	<g>
		<line class="st1" x1="158.2" y1="240.3" x2="203.2" y2="240.3"/>
		<line class="st1" x1="158.2" y1="262.7" x2="203.2" y2="262.7"/>
		<path class="st2" d="M230.3,288.1H129.7V163.7c-0.4-0.2,50.7-56.5,50.7-56.5c0.4,0.9,50,57.2,50,56.5V288.1z"/>
		<circle class="st3" cx="180.4" cy="162.4" r="14.7"/>
		<path class="st2" d="M185.9,163.5c-16.8,0-30.4-20.5-30.4-45.9s13.6-45.9,30.4-45.9s30.4,20.5,30.4,45.9c0,5.6-0.7,11-1.9,16"/>
	</g>
</g>
</svg>
